<svg xmlns="http://www.w3.org/2000/svg" viewBox="0 0 556.0638 467.9875"><defs><style>.cls-1{font-size:118px;font-family:TimesNewRomanPSMT, Times New Roman;letter-spacing:0.2em;}.cls-1,.cls-4{fill:#1b2d4b;}.cls-2,.cls-3{fill:none;stroke:#1b2d4b;stroke-miterlimit:10;}.cls-2{stroke-width:9px;}.cls-3{stroke-width:5px;}</style></defs><g id="Слой_2" data-name="Слой 2"><g id="Слой_1-2" data-name="Слой 1"><text class="cls-1" transform="matrix(0.9758, -0.2187, 0.2187, 0.9758, 32.9257, 423.0198)">ГАРАЖ</text><line class="cls-2" x1="0.9857" y1="323.3407" x2="543.7549" y2="201.4945"/><line class="cls-2" x1="9.3149" y1="448.9112" x2="546.0626" y2="331.1868"/><path class="cls-3" d="M51.0956,294.33S9.1615,118.4176,178.7439,38.5055"/><path class="cls-3" d="M347.5351,32.7033S461.9967,68.044,489.9527,195.1648"/><path class="cls-3" d="M188.2384,53.2747S94.3483,94.9451,72.7219,183.56"/><path class="cls-3" d="M337.5131,49.5824s92.8352,27.9561,125.5385,121.3187"/><path class="cls-3" d="M155.0077,434.11S334.3483,538.022,456.1945,367.6484"/><path class="cls-3" d="M188.2384,430.9451l236.3077-52.7473S344.8978,490.022,188.2384,430.9451Z"/><line class="cls-3" x1="396.5901" y1="406.1538" x2="227.7989" y2="443.6044"/><polygon class="cls-4" points="218.304 17.811 224.066 29.485 236.948 31.357 227.626 40.444 229.827 53.275 218.304 47.217 206.782 53.275 208.982 40.444 199.66 31.357 212.543 29.485 218.304 17.811"/><polygon class="cls-4" points="307.711 14.972 313.472 26.645 326.355 28.517 317.033 37.604 319.234 50.435 307.711 44.377 296.188 50.435 298.389 37.604 289.067 28.517 301.95 26.645 307.711 14.972"/><polygon class="cls-4" points="263.008 0 270.634 15.453 287.688 17.931 275.348 29.96 278.261 46.945 263.008 38.926 247.754 46.945 250.667 29.96 238.327 17.931 255.381 15.453 263.008 0"/><circle class="cls-4" cx="237.8868" cy="115.5055" r="13.1209"/><circle class="cls-4" cx="265.9197" cy="115.5055" r="13.1209"/><circle class="cls-4" cx="293.4033" cy="114.3187" r="13.1209"/><path class="cls-4" d="M468.59,180.1319c-10.6814-1.5824-22.9451,2.3736-23.7363,0s-.3956-20.5715-11.8681-20.9671-36,3.1649-36.3956,0-2.7692-20.1758-5.5385-23.7363.7912.7912,9.89-2.7692,10.2857-20.967-.3956-25.3186-16.6154,3.56-17.4066,4.7472S380.37,75.2967,359.0076,69.3626s-157.4505,2.3736-170.5055,3.1649-28.4835,1.978-33.2307,18.1977-2.3736,31.2528-5.5385,29.67-7.1208-9.4945-14.2418-7.1209-13.45,10.2857-11.4725,17.4066,7.1209,13.8462,17.4066,10.6813.3957,3.5605-1.1868,6.33-1.1868,19.3846-10.2857,20.1758-29.2747,0-31.6483,1.978-3.9561,9.89-5.1429,13.8462-14.6373,5.1429-17.8022,7.5165S56.7659,214.945,66.656,290.9011l5.9506-1.3033c-7.182-80.7493.6385-78.79,3.0164-80.9824,1.1307-1.0424,29.011-2.2418,38.7693,0,12.0357,2.7649,12.4317,58.9718,12.405,69.1135l99.0555-21.6951c-20.936-32.4265-24.3687-69.348-11.0429-85.1327,11.0769-13.1209,65.67-20.8352,96.923-8.3736,28.9613,11.5478,12.0631,64.873,9.4291,72.6316l134.1871-29.39-32.1217,6.2746c-.5275-2.6374-1.978-8.9671.9231-10.6814s18.0659-2.11,30.5934-2.9011c10.7947-.6818,13.1671,3.3334,13.6174,4.458l10.1189-2.2162S479.2714,181.7142,468.59,180.1319ZM176.645,200.3187a24.1319,24.1319,0,1,1,24.1319-24.1319A24.1319,24.1319,0,0,1,176.645,200.3187Zm140.6264-66.8682c-2.3736,2.9671-8.9011,5.7363-12.4615,5.1429s-12.7913-2.6868-14.7857-1.4011c-1.43.9219-4.599,6.94-4.599,7.9286s-37.978,1-37.978,1c-1.3846-2.9781-3.9537-7.7143-7.5141-7.5165s-15.0353,5.1371-18.2,3.6509-8.7032-3.4641-9.6923-9.9916-1.6187-31.667-.4719-33.9257c1.8565-3.6567,4.23-7.2317,19.8563-7.4295s75.3728-4.5118,82.007-.5183c4.8284,2.9065,5.224,9.83,5.62,17.5438S319.645,130.4835,317.2714,133.4505Zm42.1428,60.9341a24.1319,24.1319,0,1,1,24.1319-24.1319A24.1319,24.1319,0,0,1,359.4142,194.3846Z"/><path class="cls-4" d="M224.8978,185.5385c-.3581.4091,3.4285,13.1868,5.1428,14.2417s36.6594,17.5385,38.2418,17.67,36.9231-16.33,38.5055-17.1318,5.1428-15.5714,4.22-16.7583S225.8208,184.4835,224.8978,185.5385Z"/></g></g></svg>